<?xml version="1.0" encoding="UTF-8" standalone="no"?>
<!-- Created with Inkscape (http://www.inkscape.org/) -->

<svg
   xmlns:dc="http://purl.org/dc/elements/1.1/"
   xmlns:cc="http://creativecommons.org/ns#"
   xmlns:rdf="http://www.w3.org/1999/02/22-rdf-syntax-ns#"
   xmlns:svg="http://www.w3.org/2000/svg"
   xmlns="http://www.w3.org/2000/svg"
   xmlns:sodipodi="http://sodipodi.sourceforge.net/DTD/sodipodi-0.dtd"
   xmlns:inkscape="http://www.inkscape.org/namespaces/inkscape"
   width="36.195847mm"
   height="36.195847mm"
   viewBox="0 0 36.195847 36.195847"
   version="1.1"
   id="svg8"
   inkscape:version="0.92.4 (5da689c313, 2019-01-14)"
   sodipodi:docname="logo.svg">
  <defs
     id="defs2" />
  <sodipodi:namedview
     id="base"
     pagecolor="#ffffff"
     bordercolor="#666666"
     borderopacity="1.0"
     inkscape:pageopacity="0.0"
     inkscape:pageshadow="2"
     inkscape:zoom="0.1767767"
     inkscape:cx="-287.76761"
     inkscape:cy="195.23168"
     inkscape:document-units="mm"
     inkscape:current-layer="layer1"
     showgrid="false"
     fit-margin-top="0"
     fit-margin-left="0"
     fit-margin-right="0"
     fit-margin-bottom="0" />
  <metadata
     id="metadata5">
    <rdf:RDF>
      <cc:Work
         rdf:about="">
        <dc:format>image/svg+xml</dc:format>
        <dc:type
           rdf:resource="http://purl.org/dc/dcmitype/StillImage" />
        <dc:title></dc:title>
      </cc:Work>
    </rdf:RDF>
  </metadata>
  <g
     inkscape:label="Capa 1"
     inkscape:groupmode="layer"
     id="layer1"
     transform="translate(-220.01684,-326.77825)">
    <g
       id="g2453">
      <path
         inkscape:connector-curvature="0"
         id="path1614"
         style="fill:#02454d;fill-rule:evenodd;stroke-width:0.26458332"
         d="m 238.11477,326.77825 a 18.097923,18.097923 0 0 1 18.09792,18.09792 18.097923,18.097923 0 1 1 -18.09792,-18.09792 z" />
      <g
         transform="matrix(0.26458333,0,0,0.26458333,-506.51141,368.06436)"
         id="Layer1025">
        <path
           inkscape:connector-curvature="0"
           id="path1616"
           style="fill:#ffffff;fill-rule:evenodd"
           d="m 2812.2164,-67.9037 c 0,0 -0.3558,-0.0093 -0.8624,0.0114 -0.092,-0.4422 -0.1529,-0.7531 -0.1529,-0.7967 0,-0.4939 -0.027,-0.9615 -0.1072,-1.402 -0.08,-0.4409 -0.066,-0.9051 0.042,-1.3923 0.074,0.1343 0.1478,0.3054 0.2228,0.5134 0.074,0.208 0.1465,0.4346 0.216,0.6807 0.069,0.2456 0.1326,0.4926 0.1897,0.7408 0.058,0.2478 0.1275,0.4498 0.2034,0.6091 0.2037,0.4299 1.2524,4.882 1.3414,5.2348 0.089,0.3533 0.1148,0.7671 0.078,1.2411 -0.2232,-0.0085 -0.4163,-0.0902 -0.5798,-0.2453 -0.1635,-0.1546 -0.297,-0.346 -0.3999,-0.5735 -0.1025,-0.2274 -0.177,-0.4659 -0.2224,-0.7162 -0.025,-0.1398 -0.3303,-1.5363 -0.5938,-2.7701 0.5633,-0.369 0.884,-0.7925 0.6248,-1.1352 z m 10.5391,-17.2476 c 0.1885,0.0885 0.3656,0.1487 0.5312,0.1804 0.1656,0.0314 0.3028,0.0742 0.4108,0.1284 0.1085,0.0538 0.1737,0.1406 0.1953,0.2596 0.022,0.119 -0.017,0.3109 -0.1169,0.5752 -0.065,0.1843 -0.1076,0.3579 -0.1271,0.5214 -0.019,0.1635 -0.067,0.3075 -0.1427,0.4321 -0.076,0.1245 -0.1843,0.2058 -0.3249,0.2435 -0.141,0.0381 -0.3651,0.0233 -0.6726,-0.0436 -0.061,-0.0627 -0.125,-0.1804 -0.1936,-0.3524 -0.068,-0.1724 -0.1372,-0.3507 -0.2075,-0.5345 -0.071,-0.1843 -0.1279,-0.3647 -0.1724,-0.5414 -0.044,-0.1762 -0.075,-0.3121 -0.092,-0.4074 z m 20.5565,1.5799 c -0.1732,0.13 -0.3037,0.3261 -0.3913,0.5879 -0.088,0.2622 -0.1623,0.4973 -0.2228,0.7052 -0.1191,0.2923 -0.1788,0.574 -0.1788,0.8446 0,0.2707 0.028,0.5613 0.085,0.8709 0.098,0.6713 0.2677,1.1695 0.5113,1.4948 0.2439,0.3248 0.6213,0.6747 1.1326,1.0491 0.3096,-0.0563 0.5451,-0.1482 0.7065,-0.2761 0.1614,-0.1275 0.2923,-0.2868 0.3931,-0.4774 0.1008,-0.1906 0.1745,-0.3948 0.2211,-0.6125 0.047,-0.2177 0.1054,-0.4684 0.177,-0.7522 -0.1169,-0.1017 -0.3227,-0.2182 -0.6171,-0.3495 -0.2948,-0.1308 -0.593,-0.3164 -0.8954,-0.557 -0.302,-0.2405 -0.5566,-0.5574 -0.7633,-0.9504 -0.2067,-0.3931 -0.2592,-0.9188 -0.1576,-1.5774 z m 2.5537,2.674 c 0.095,-0.2881 0.1233,-0.6748 0.084,-1.1597 -0.038,-0.4855 -0.053,-0.9014 -0.042,-1.2479 0,-0.2706 -0.029,-0.4621 -0.086,-0.5748 -0.058,-0.1126 -0.2042,-0.2092 -0.4405,-0.2892 -0.4914,-0.1322 -0.876,-0.081 -1.1534,0.1541 -0.277,0.2351 -0.4062,0.5413 -0.3867,0.9196 0.019,0.3778 0.1906,0.7777 0.5134,1.1987 0.3227,0.4214 0.8263,0.7544 1.5108,0.9992 z m 5.348,-0.2334 c -0.388,0.1686 -0.7625,0.4769 -1.1242,0.9242 -0.3617,0.4473 -0.6099,0.9107 -0.7442,1.3906 -0.1343,0.4795 -0.1004,0.9043 0.1021,1.2736 0.2024,0.3694 0.6862,0.5583 1.4507,0.5668 0.2406,-0.1665 0.4655,-0.4537 0.6743,-0.8607 0.2093,-0.4075 0.3541,-0.8277 0.4354,-1.2605 0.081,-0.4334 0.068,-0.8434 -0.039,-1.2301 -0.1072,-0.3867 -0.3588,-0.6548 -0.7552,-0.8039 z m 3.8502,-3.3953 c 0.1364,0.0737 0.2067,0.1224 0.2113,0.1461 0,0.0242 0.01,0.1216 0.016,0.2927 -0.063,0.0606 -0.1385,0.1173 -0.2274,0.1703 -0.089,0.0533 -0.2427,0.155 -0.4613,0.3054 -0.219,0.1508 -0.5125,0.3642 -0.8806,0.64 -0.3685,0.2761 -0.8751,0.6701 -1.5206,1.1813 0.1449,0.1211 0.2885,0.1995 0.4304,0.2355 0.1418,0.0356 0.2727,0.0796 0.393,0.1313 0.1203,0.0521 0.2389,0.1292 0.3558,0.2308 0.1169,0.1017 0.2211,0.2677 0.3122,0.4973 0.1601,0.3401 0.2385,0.7379 0.2351,1.194 0,0.4558 -0.051,0.9014 -0.1445,1.3368 -0.093,0.4354 -0.2046,0.8374 -0.3346,1.2055 -0.13,0.3681 -0.2512,0.6485 -0.3638,0.8416 -0.1563,0.2249 -0.3474,0.4261 -0.5735,0.6023 -0.2266,0.1767 -0.4664,0.3126 -0.7197,0.4079 -0.6934,0.2491 -1.3122,0.2631 -1.8569,0.042 -0.5447,-0.2207 -1.0009,-0.5625 -1.3677,-1.0251 -0.3672,-0.4625 -0.6226,-0.9882 -0.7671,-1.5773 -0.144,-0.5892 -0.1474,-1.1178 -0.011,-1.5854 0.05,-0.1322 0.1555,-0.33 0.3169,-0.593 0.1613,-0.2631 0.3464,-0.5308 0.5552,-0.8027 0.2093,-0.2715 0.4096,-0.5235 0.6015,-0.7552 0.1915,-0.2317 0.3448,-0.3702 0.4596,-0.416 -0.1601,-0.1393 -0.316,-0.2537 -0.4672,-0.343 -0.1445,0.3155 -0.3024,0.5976 -0.4748,0.8467 -0.2927,0.4223 -0.6023,0.6819 -0.9293,0.7781 -0.327,0.0965 -0.6824,0.241 -1.0657,0.4337 -0.1063,0.3638 -0.2038,0.7078 -0.2927,1.0314 -0.089,0.324 -0.2406,0.6408 -0.4549,0.9505 -0.3207,0.4028 -0.6633,0.6497 -1.0284,0.7408 -0.3647,0.091 -0.6523,0.1677 -0.8624,0.2304 -0.4723,0.1105 -0.8548,0.1741 -1.147,0.1902 -0.2923,0.0161 -0.6358,-0.1123 -1.0301,-0.385 -0.2491,-0.1517 -0.5011,-0.3889 -0.757,-0.7116 -0.042,-0.0538 -0.083,-0.1068 -0.1211,-0.1593 -0.01,0.0538 -0.016,0.1093 -0.025,0.1673 -0.056,0.3672 -0.1364,0.7387 -0.2406,1.1144 -0.1037,0.3757 -0.2312,0.7252 -0.3816,1.0479 -0.1508,0.3228 -0.3147,0.5371 -0.4922,0.6434 -0.7582,0.4329 -1.3939,0.6591 -1.9073,0.6786 -0.5134,0.0194 -0.9395,-0.1246 -1.2783,-0.4321 -0.3393,-0.3075 -0.6176,-0.7552 -0.8353,-1.3435 -0.1982,-0.5358 -0.385,-1.15 -0.5608,-1.843 -0.1521,0.5354 -0.299,1.0382 -0.4414,1.5084 -0.1537,0.5078 -0.2533,0.8399 -0.299,0.9958 -0.037,0.2037 -0.094,0.4663 -0.1707,0.7878 -0.077,0.3219 -0.1876,0.5574 -0.3329,0.7065 -0.197,0.1347 -0.4685,0.233 -0.8137,0.2956 -0.3456,0.0632 -0.6442,0.0805 -0.8954,0.0521 -0.355,-0.0584 -0.6476,-0.2452 -0.8772,-0.5603 -0.2296,-0.3152 -0.4049,-0.671 -0.5261,-1.0674 -0.1215,-0.3965 -0.208,-0.8052 -0.26,-1.2267 -0.052,-0.4214 -0.09,-0.7649 -0.1136,-1.0313 -0.039,-0.4855 -0.033,-0.9912 0.019,-1.5173 0.052,-0.5265 0.082,-1.0364 0.091,-1.5303 -0.011,-0.4659 0.015,-0.9996 0.078,-1.6019 0.063,-0.6023 0.044,-1.1153 -0.058,-1.5401 -0.4719,0.1105 -0.8353,0.515 -1.0899,1.2135 -0.2545,0.6985 -0.443,1.4897 -0.5654,2.3732 -0.1224,0.884 -0.1783,1.7617 -0.1678,2.6333 0.011,0.8722 0.055,1.5223 0.1335,1.9514 0.047,0.2618 0.092,0.4384 0.133,0.5295 0.041,0.091 -0.01,0.2232 -0.1496,0.3964 -0.119,0.0216 -0.2901,0.028 -0.5133,0.0195 -0.2228,-0.0089 -0.4541,-0.0284 -0.6934,-0.0584 -0.2393,-0.0305 -0.4689,-0.075 -0.6891,-0.1335 -0.2199,-0.0584 -0.3719,-0.1169 -0.4562,-0.1753 -0.136,-0.1156 -0.2529,-0.3105 -0.3512,-0.5841 -0.053,0.4439 -0.1088,0.7683 -0.169,0.9738 -0.071,0.2838 -0.1427,0.4998 -0.2143,0.648 -0.072,0.1487 -0.1495,0.2614 -0.2338,0.338 -0.085,0.0771 -0.1953,0.1462 -0.3316,0.208 -0.1364,0.0618 -0.3152,0.1618 -0.5358,0.3007 -0.3554,0.2122 -0.682,0.3452 -0.9798,0.3995 -0.2977,0.0542 -0.6298,-0.0458 -0.9958,-0.2991 -0.338,-0.2338 -0.5976,-0.5129 -0.7797,-0.8365 -0.089,-0.1589 -0.1648,-0.3257 -0.2275,-0.5007 -0.031,0.194 -0.061,0.3922 -0.088,0.5947 -0.063,0.4668 -0.1491,0.9073 -0.2584,1.3207 -0.1092,0.4138 -0.3083,0.7082 -0.5963,0.884 -0.043,0.0322 -0.1593,0.072 -0.3474,0.1186 -0.1884,0.0466 -0.396,0.0902 -0.6222,0.1313 -0.2266,0.0411 -0.4363,0.0732 -0.629,0.0957 -0.1927,0.0229 -0.327,0.0288 -0.4028,0.0182 -0.1711,0.0064 -0.2897,-0.003 -0.3558,-0.0279 -0.066,-0.0246 -0.108,-0.0543 -0.1266,-0.0877 -0.018,-0.0335 -0.045,-0.078 -0.08,-0.133 -0.035,-0.0555 -0.1084,-0.122 -0.2206,-0.1999 -0.2906,0.299 -0.5062,0.5349 -0.6468,0.7082 -0.1406,0.1732 -0.2893,0.3049 -0.4452,0.3947 -0.1559,0.0898 -0.36,0.1517 -0.6125,0.1851 -0.2524,0.0335 -0.6091,0.0678 -1.0703,0.1025 -0.3423,0.0127 -0.6273,0.003 -0.8548,-0.0296 -0.2274,-0.0322 -0.4426,-0.2025 -0.6463,-0.51 -0.236,-0.3507 -0.4452,-0.8234 -0.6269,-1.4181 -0.093,-0.3041 -0.1754,-0.618 -0.2461,-0.942 -0.054,0.0851 -0.1067,0.1652 -0.1584,0.2401 -0.1267,0.183 -0.2054,0.3266 -0.2355,0.4304 -0.1,0.2643 -0.1601,0.4413 -0.1805,0.5311 -0.021,0.0903 -0.034,0.1538 -0.039,0.1919 -0.01,0.0377 -0.046,0.0881 -0.1203,0.1512 -0.075,0.0627 -0.2139,0.211 -0.4177,0.4448 0.067,0.2342 0.099,0.407 0.095,0.5184 0,0.1114 -4e-4,0.2029 0.013,0.2745 0.013,0.0716 0.046,0.1516 0.099,0.2406 0.053,0.0885 0.1707,0.2274 0.3524,0.4159 0.1495,0.1449 0.3046,0.3876 0.4647,0.7277 0.1601,0.3401 1.1741,4.6753 1.241,4.8841 0.1042,0.3262 0.1898,0.6053 0.2453,0.8412 0.055,0.2364 -0.025,0.5198 -0.2326,0.8548 -0.1537,0.2478 -0.4112,0.4439 -0.7797,0.5845 -0.3681,0.1411 -0.7587,0.1936 -1.1712,0.1576 -0.4126,-0.0356 -0.8031,-0.1864 -1.1712,-0.4515 -0.368,-0.2656 -0.6514,-0.6862 -0.7861,-1.2788 l -0.5566,-2.4423 c -0.8899,0.1881 -1.6815,0.1076 -1.7586,-0.4904 -0.077,-0.6045 0.5701,-0.9526 1.3846,-1.153 l -0.4532,-1.9903 c -0.054,-0.2377 -0.1338,-0.5668 -0.1999,-0.9975 -0.066,-0.4312 -0.1639,-0.7332 -0.294,-0.9065 -0.1711,0.0064 -0.3151,0.0263 -0.432,0.0598 -0.1173,0.0338 -0.2292,0.0601 -0.3363,0.0796 -0.1076,0.0195 -0.2287,0.0292 -0.3639,0.0292 -0.1355,0 -0.3189,-0.0279 -0.551,-0.0843 -0.9505,-0.2211 -1.6591,-0.6645 -2.1246,-1.3308 -0.4655,-0.6659 -0.6519,-1.4876 -0.5587,-2.4643 0.1343,-1.1568 0.5722,-2.0979 1.3143,-2.8235 0.7421,-0.7256 1.6066,-1.3503 2.5944,-1.8743 0.3206,0.1385 0.5658,0.2355 0.7361,0.2906 0.1699,0.0555 0.3308,0.094 0.4825,0.1156 0.1516,0.0216 0.3197,0.0339 0.5048,0.0373 0.1856,0.0034 0.449,-0.0017 0.7913,-0.0144 0.2016,0.1601 0.3689,0.3698 0.5019,0.6286 0.1334,0.2588 0.2389,0.5349 0.3168,0.8284 0.078,0.2936 0.1394,0.5964 0.1834,0.9082 0.044,0.3117 0.075,0.5773 0.089,0.7959 0.013,0.3422 0.024,0.6726 0.033,0.9911 0.01,0.3181 0.02,0.6485 0.032,0.9907 0,0.247 -0.037,0.5422 -0.097,0.8857 -0.061,0.3431 -0.069,0.6341 -0.026,0.8721 0.4029,-0.2207 0.7277,-0.532 0.9747,-0.9339 0.1495,-0.2432 0.2905,-0.4825 0.4231,-0.718 l -8e-4,-0.0051 c -0.098,-0.6713 -0.1538,-1.3194 -0.1686,-1.9446 -0.015,-0.6247 0.014,-1.1406 0.088,-1.5481 0.045,-0.1559 0.1071,-0.3579 0.1851,-0.6057 0.078,-0.2482 0.1622,-0.4973 0.252,-0.7476 0.09,-0.2499 0.1758,-0.4871 0.2584,-0.7112 0.082,-0.2244 0.1524,-0.3786 0.2109,-0.4629 0.1906,-0.0347 0.396,-0.0229 0.6159,0.0356 0.2198,0.0584 0.4218,0.1203 0.6057,0.1851 0.028,0.0194 0.087,0.1075 0.1774,0.2634 0.09,0.1559 0.1889,0.3287 0.2969,0.518 0.1085,0.1898 0.2076,0.3626 0.2974,0.5185 0.09,0.1559 0.1372,0.2457 0.1415,0.2694 0.1101,0.4723 0.1702,1.0398 0.18,1.7027 0.01,0.6629 0.033,1.3351 0.072,2.0175 0.038,0.6823 0.097,1.3117 0.177,1.8878 0.08,0.576 0.2554,0.9996 0.5261,1.2703 0.1732,-0.1297 0.3736,-0.3817 0.601,-0.7553 0.2275,-0.3735 0.3596,-0.6624 0.3965,-0.8657 0.017,-0.1754 0,-0.4503 -0.039,-0.8239 -0.043,-0.3735 -0.091,-0.7709 -0.1427,-1.1923 -0.052,-0.421 -0.1,-0.8188 -0.1428,-1.1923 -0.044,-0.3736 -0.056,-0.6481 -0.039,-0.8239 0.017,-0.446 0.059,-0.823 0.1266,-1.1305 0.067,-0.3075 0.1398,-0.5853 0.2177,-0.8331 0.078,-0.2482 0.1533,-0.4774 0.2258,-0.6875 0.072,-0.2101 0.1228,-0.4405 0.1512,-0.6921 0.3723,-0.1169 0.7158,-0.1237 1.0297,-0.0207 0.3143,0.1029 0.5676,0.346 0.7603,0.7293 0.069,0.1106 0.1338,0.3635 0.1936,0.7587 0.059,0.3951 0.1185,0.8212 0.177,1.2783 0.058,0.457 0.1055,0.8857 0.141,1.2851 0.036,0.3998 0.053,0.6612 0.051,0.7848 0,0.2944 0.016,0.6307 0.035,1.0086 0.019,0.3782 0.1301,0.6472 0.3313,0.8077 0.1368,-0.1974 0.2677,-0.4918 0.3935,-0.884 0.1253,-0.3918 0.235,-0.8056 0.3282,-1.241 0.027,-0.1263 0.053,-0.2516 0.078,-0.3766 8e-4,-0.3355 0,-0.6582 0.01,-0.9687 0.01,-0.2228 0.028,-0.5218 0.058,-0.8967 0.031,-0.3744 0.066,-0.7565 0.1055,-1.1453 0.04,-0.3888 0.087,-0.7726 0.1415,-1.1517 0.054,-0.3791 0.1215,-0.6866 0.2016,-0.9225 0.035,-0.0805 0.052,-0.1203 0.052,-0.1203 0,0 0.019,-0.0284 0.059,-0.0847 0.1906,-0.0343 0.2926,-0.047 0.307,-0.0373 0.014,0.0098 0.085,0.028 0.2127,0.0538 0.1279,0.0259 0.2075,0.0237 0.2389,-0.0063 0.031,-0.0305 0.07,-0.0559 0.1152,-0.0767 0.046,-0.0203 0.1143,-0.0144 0.2062,0.0182 0.092,0.0322 0.2584,0.1004 0.499,0.2046 l 0.4024,3.8405 c -0.01,0.2228 0,0.4129 0.011,0.5701 0.017,0.1571 0.056,0.3405 0.1186,0.5506 0.031,0.1669 0.056,0.2728 0.076,0.3185 0.021,0.0454 0.033,0.0801 0.038,0.1038 0,0.0237 0,0.0487 -0.01,0.075 -0.01,0.0258 -0.01,0.1127 -0.01,0.2596 0,0.2707 0.068,0.5786 0.2046,0.923 0.1364,0.3443 0.2936,0.5989 0.471,0.7632 0.2038,-0.2338 0.3634,-0.6073 0.4795,-1.1207 0.1156,-0.5134 0.2118,-1.0352 0.2876,-1.5659 0.035,-0.2453 0.068,-0.4808 0.098,-0.707 -0.065,-0.5536 -0.1165,-1.133 -0.1551,-1.7379 -0.06,-0.9369 -0.1071,-1.8082 -0.1427,-2.6138 -0.036,-0.806 -0.097,-1.3118 -0.1838,-1.5176 0.1063,-0.0932 0.1749,-0.1546 0.2063,-0.1851 0.032,-0.0301 0.059,-0.0475 0.083,-0.0521 0.024,-0.0042 0.066,-0.0119 0.1249,-0.0225 0.06,-0.011 0.161,-0.0292 0.3041,-0.0554 0.4482,-0.1059 0.7637,0.0398 0.9467,0.4371 0.1834,0.3977 0.4219,1.1356 0.7167,2.2144 0.2143,-0.8514 0.5506,-1.5401 1.0089,-2.0666 0.4579,-0.5261 0.9276,-0.8882 1.4084,-1.0864 0.4807,-0.1983 0.9234,-0.2356 1.327,-0.1123 0.4041,0.1237 0.6709,0.4075 0.801,0.8514 0.039,0.2143 0.091,0.6048 0.1575,1.1711 0.066,0.5668 0.1267,1.1708 0.1818,1.8133 0.055,0.6421 0.1109,1.2534 0.1673,1.8341 0.056,0.5802 0.094,0.992 0.1139,1.2347 0.011,0.1948 0.046,0.49 0.1055,0.8852 0.059,0.3952 0.152,0.6675 0.2774,0.8171 0.093,-0.1648 0.2338,-0.51 0.421,-1.0365 0.1872,-0.5261 0.3944,-1.0809 0.6206,-1.6633 0.1901,-0.4893 0.3862,-0.945 0.5887,-1.3673 -0.026,-0.216 -0.05,-0.4376 -0.072,-0.665 -0.04,-0.4236 -0.065,-0.831 -0.074,-1.2233 -0.01,-0.3922 -0.013,-0.7116 -0.01,-0.9585 0.015,-0.3228 0.025,-0.6752 0.029,-1.0576 0,-0.3821 0,-0.7447 -0.013,-1.0865 l 0.049,-1.9658 c -0.6544,0.1928 -1.2012,0.366 -1.6409,0.5198 -0.2579,0.0715 -0.659,0.1999 -1.2037,0.385 -0.5447,0.1851 -1.1064,0.3795 -1.6846,0.5828 -0.5785,0.2037 -1.1182,0.3821 -1.6197,0.5345 -0.5015,0.1525 -0.8238,0.2419 -0.9665,0.2682 -0.083,-0.1822 -0.1085,-0.3249 -0.078,-0.4291 0.03,-0.1038 0.088,-0.2622 0.172,-0.4744 0.085,-0.2122 0.1876,-0.3232 0.3088,-0.3329 0.1211,-0.0098 0.2943,-0.072 0.5197,-0.1868 0.1821,-0.0822 0.3337,-0.1961 0.4549,-0.341 0.1216,-0.1453 0.249,-0.2546 0.3833,-0.3283 0.067,-0.0368 0.3262,-0.1025 0.7768,-0.1965 0.4503,-0.094 0.9488,-0.1969 1.4944,-0.3088 0.546,-0.1114 1.0669,-0.2245 1.5629,-0.3392 0.496,-0.1148 0.823,-0.211 0.981,-0.2889 0.087,-0.0652 0.1766,-0.1123 0.2698,-0.1415 0.093,-0.0292 0.1949,-0.0788 0.3054,-0.1478 l 0.075,-1.4164 c 0.013,-0.1995 0.022,-0.349 0.029,-0.4486 0.01,-0.0995 0.056,-0.2317 0.1495,-0.3964 0.5846,-0.0326 0.9785,0.0682 1.1809,0.3024 0.2025,0.2338 0.3872,0.471 0.5541,0.7116 l 0.1397,0.565 c 0.2576,-0.0711 0.5164,-0.1368 0.7764,-0.1965 0.2597,-0.0593 0.485,-0.1063 0.6756,-0.1411 0.9814,-0.1537 1.9332,-0.3329 2.8561,-0.5375 0.9225,-0.205 1.89,-0.3007 2.9014,-0.2876 0.2749,0.0238 0.6011,0.1246 0.9781,0.302 l -0.8645,0.5265 c -0.2749,-0.0237 -0.6447,0.0064 -1.1094,0.0911 -0.4646,0.0843 -0.9568,0.1859 -1.4769,0.3054 -0.5197,0.119 -1.0255,0.2478 -1.5172,0.3863 -0.4918,0.1385 -0.9044,0.2384 -1.2377,0.299 -0.258,0.0716 -0.5286,0.1389 -0.8124,0.2029 -0.2838,0.064 -0.5905,0.1381 -0.9196,0.2228 l 0.5037,2.1602 0.026,0.1432 c 0.013,0.0715 0.031,0.1359 0.054,0.1931 0.022,0.0576 0.038,0.1101 0.047,0.1576 l 0.032,0.1787 c 0.035,0.1906 0.052,0.3168 0.05,0.3787 -8e-4,0.0618 0,0.1114 -0.01,0.1495 -0.01,0.0377 -0.017,0.1076 -0.036,0.2097 -0.019,0.1016 -0.018,0.2736 0,0.5163 0.026,0.4138 0.066,0.8374 0.1198,1.2703 0.054,0.4333 0.097,0.8687 0.1267,1.3062 0.039,0.4854 0.1199,0.8277 0.2423,1.0268 0.1224,0.199 0.2461,0.5091 0.3719,0.9293 0.058,0.1863 0.094,0.3829 0.1071,0.5896 0.013,0.2071 0.039,0.4176 0.078,0.6319 0.039,0.2144 0.093,0.4079 0.1609,0.5799 0.068,0.1724 0.1745,0.3189 0.3198,0.4405 0.1453,-0.4202 0.2859,-0.9318 0.4223,-1.5354 0.1114,-0.4905 0.2427,-0.981 0.3943,-1.4711 -0.084,-0.3456 -0.119,-0.6789 -0.105,-0.9996 0.024,-0.546 0.1173,-1.1165 0.2795,-1.7125 0.052,-0.2554 0.089,-0.3604 0.1089,-0.3151 0.021,0.0457 0.044,0.0047 0.07,-0.1233 0.039,-0.0563 0.05,-0.1012 0.031,-0.1346 -0.018,-0.0339 0.01,-0.1186 0.083,-0.2555 0.035,-0.08 0.1055,-0.1973 0.2127,-0.3524 0.1071,-0.1546 0.2194,-0.3168 0.3363,-0.4854 0.1169,-0.169 0.2304,-0.3253 0.3397,-0.468 0.1093,-0.1432 0.1952,-0.2448 0.2583,-0.3054 0.3097,-0.327 0.6146,-0.4439 0.9145,-0.3507 0.2999,0.0927 0.6341,0.2046 1.0022,0.3346 l -0.023,0.4841 c 0.3876,-0.169 0.7341,-0.3613 1.0395,-0.5769 0.3054,-0.2151 0.6717,-0.3003 1.0983,-0.2549 0.069,0.1105 0.1211,0.1935 0.1558,0.2486 0.035,0.0555 0.062,0.0995 0.08,0.1334 0.019,0.0335 0.049,0.0648 0.091,0.094 0.042,0.0293 0.1195,0.0831 0.2322,0.161 0.017,0.366 0.058,0.7277 0.1236,1.0852 0.065,0.3575 0.1275,0.7027 0.1881,1.0364 0.033,0.3139 0.014,0.582 -0.057,0.804 -0.07,0.2219 -0.07,0.4621 0,0.7196 0.3897,-0.0216 0.7057,-0.1465 0.9471,-0.3753 0.2415,-0.2283 0.441,-0.4858 0.5977,-0.773 0.088,-0.1609 0.169,-0.3206 0.2418,-0.479 -0.076,-0.0894 -0.1495,-0.1957 -0.2206,-0.3186 -0.1385,-0.2211 -0.2114,-0.5214 -0.219,-0.9017 -0.01,-0.38 0.029,-0.6883 0.1088,-0.9242 0.1885,-0.4528 0.4977,-0.8845 0.9276,-1.2949 0.43,-0.4104 0.8726,-0.7184 1.3271,-0.9242 0.2037,0.0368 0.4176,0.0966 0.6417,0.1787 0.2245,0.0822 0.4502,0.1398 0.6777,0.1724 0.2554,0.0517 0.4367,0.136 0.5438,0.2516 0.1076,0.1161 0.3194,0.2313 0.6354,0.3461 0.03,0.1669 0.06,0.3647 0.089,0.593 0.029,0.2287 0.039,0.4485 0.028,0.6595 -0.011,0.2113 -0.056,0.404 -0.1347,0.5786 -0.079,0.174 -0.238,0.2829 -0.4761,0.3261 0.024,-0.2749 0.075,-0.5672 0.1542,-0.8772 0.079,-0.3096 0,-0.59 -0.2453,-0.8412 -0.2033,-0.0369 -0.3693,-9e-4 -0.4968,0.1088 -0.1279,0.1093 -0.2503,0.2483 -0.3672,0.4173 -0.074,0.1363 -0.1381,0.2219 -0.1936,0.2566 -0.055,0.0348 -0.1114,0.0636 -0.1686,0.086 -0.058,0.0229 -0.1198,0.0525 -0.1872,0.0894 -0.067,0.0368 -0.1394,0.1118 -0.2177,0.2245 -0.4113,0.4439 -0.6654,0.8408 -0.7616,1.1906 -0.097,0.3499 -0.056,0.607 0.1216,0.7718 0.1775,0.1643 0.4879,0.2126 0.931,0.1444 0.443,-0.0682 0.9958,-0.31 1.6587,-0.726 0.3312,-0.208 0.587,-0.3592 0.7666,-0.4532 0.18,-0.0945 0.3359,-0.1843 0.4681,-0.2698 0.1321,-0.0856 0.2677,-0.1838 0.4074,-0.2957 0.1398,-0.1114 0.3355,-0.2884 0.5867,-0.5311 z m -46.6113,12.0907 c 0.069,-0.4312 0.1037,-0.9543 0.1025,-1.5693 -9e-4,-0.6151 -0.01,-1.1555 -0.018,-1.6214 -0.024,-0.5371 0,-1.07 0.06,-1.5982 0.064,-0.5286 0.086,-1.0496 0.067,-1.5629 -0.043,0.0326 -0.108,0.1182 -0.1935,0.2567 -0.086,0.1385 -0.1868,0.2922 -0.3037,0.4612 -0.1169,0.169 -0.2292,0.3308 -0.3363,0.4859 -0.1072,0.1546 -0.1902,0.2744 -0.2487,0.3587 -0.097,0.1411 -0.1834,0.2427 -0.2583,0.3054 -0.075,0.0631 -0.1462,0.1436 -0.2144,0.2423 -0.068,0.0983 -0.1427,0.2291 -0.224,0.3914 -0.081,0.1626 -0.1673,0.3998 -0.2584,0.7115 -0.095,0.2881 -0.1288,0.6451 -0.1008,1.0704 0.028,0.4257 0.1173,0.8158 0.2681,1.1699 0.1504,0.3541 0.3605,0.6298 0.6303,0.8268 0.2694,0.1974 0.6124,0.2211 1.028,0.0716 z m 21.1304,-28.0727 c -9e-4,-0.0322 -9e-4,-0.0322 -9e-4,-0.0322 -0.1063,-0.3837 -0.2439,-0.7345 -0.2545,-1.1529 0.02,-0.4838 0.2215,-1.4228 0.4684,-1.8476 0.2788,-0.4261 0.9679,0.072 1.1996,0.3236 0.266,0.3155 0.2783,0.798 0.321,1.2156 0.011,0.4185 -0.014,0.7412 -0.1317,1.1631 -0.1487,0.4867 -1.3918,1.0013 -1.6019,0.3304 z m 8.6683,-3.6342 c -0.2601,-0.0898 -0.5786,0.047 -0.8535,0.6337 -0.1233,0.2287 -0.2148,0.4244 -0.3677,0.7501 -0.1198,0.3575 -0.3045,0.684 -0.4566,1.0424 -0.2723,0.6832 -0.6095,1.3681 -0.9784,2.0539 -0.1529,0.3257 -0.338,0.6527 -0.5227,0.9792 -0.093,0.1635 -0.1851,0.327 -0.3096,0.491 -0.1555,0.2295 -0.1809,0.4879 -0.3685,0.7179 -0.2169,0.3278 -0.4664,0.6561 -0.7163,0.9522 -0.2495,0.3287 -0.4998,0.6247 -0.7827,0.8895 -0.8501,0.7624 -1.4694,0.4883 -1.9112,-0.4346 -0.3384,-0.6354 -0.2977,-1.5706 -0.4765,-2.2746 0,-0.0643 0,-0.0965 0,-0.1287 -0.01,-0.2897 0.147,-0.5511 0.4029,-0.6222 0.4803,-0.1089 0.9284,-0.2169 1.3736,-0.4537 0.7616,-0.438 0.9047,-1.15 0.9496,-1.9242 0.125,-1.4203 0.1453,-3.1598 -1.4803,-3.763 -0.8789,-0.3638 -1.8841,-0.6282 -2.8481,-0.5396 -1.0598,0.1237 -2.1106,0.6014 -2.7998,1.3596 -0.4096,0.3647 -0.6247,0.7565 -0.8717,1.1813 -0.09,0.2601 -0.4125,1.5245 -0.4388,1.7506 -0.014,0.0763 -0.026,0.1542 -0.037,0.233 -0.091,-0.0432 -0.1825,-0.0822 -0.2812,-0.0961 -0.5168,-0.0513 -1.0005,-0.0712 -1.5104,0.1351 -0.255,0.1029 -0.4838,-0.0204 -0.5536,-0.244 -0.1386,-0.3829 -0.3084,-0.7328 -0.3829,-1.1174 -0.225,-1.2503 -1.239,-1.8687 -2.4322,-1.9352 -1.13,-0.1 -2.1864,0.152 -3.0695,0.8831 -0.3156,0.2656 -0.5985,0.5307 -0.9149,0.7641 -0.094,0.0991 -0.2533,0.1673 -0.3804,0.2351 -0.01,-0.2254 -0.044,-0.4498 -0.017,-0.676 -0.014,-0.5473 -0.059,-1.0615 -0.2342,-1.6045 -0.1749,-0.543 -0.2545,-1.1529 -0.205,-1.7341 0.054,-0.4197 -0.054,-0.8679 -0.065,-1.2863 -0.01,-0.3863 -0.085,-0.8031 -0.03,-1.1911 0.053,-0.452 -0.086,-0.8353 -0.2249,-1.2504 -0.069,-0.1914 -0.2338,-0.316 -0.3969,-0.4087 -0.098,-0.0619 -0.2287,-0.1229 -0.3253,-0.1203 -0.6463,-0.0805 -1.2601,-0.1614 -1.8725,-0.1779 -0.3863,0.01 -0.7032,0.2109 -0.8222,0.6006 -0.058,0.2588 -0.18,0.5197 -0.2058,0.7781 -0.019,0.5159 -0.2,1.0034 -0.2843,1.4888 -0.1147,0.5502 -0.2295,1.1009 -0.3452,1.6189 -0.119,0.3897 -0.205,0.8107 -0.324,1.2 -0.052,0.4845 -0.097,1.2584 -0.1144,1.8387 -0.019,0.202 -0.033,0.4087 -0.046,0.6158 -0.022,0.0403 -0.043,0.0826 -0.064,0.1279 -0.1232,0.2283 -0.2147,0.424 -0.3676,0.7502 -0.1199,0.357 -0.3046,0.684 -0.4566,1.042 -0.2724,0.6832 -0.6095,1.3681 -0.9785,2.0538 -0.1529,0.3262 -0.3375,0.6527 -0.5226,0.9797 -0.092,0.1631 -0.1851,0.3266 -0.3097,0.4909 -0.155,0.2292 -0.1808,0.4876 -0.3685,0.718 -0.2168,0.3274 -0.4663,0.6557 -0.7162,0.9522 -0.2495,0.3282 -0.4998,0.6243 -0.7828,0.8895 -0.8501,0.7624 -1.4689,0.4879 -1.9111,-0.4346 -0.3384,-0.6358 -0.2978,-1.5706 -0.4765,-2.275 0,-0.0644 0,-0.0961 0,-0.1283 -0.01,-0.2898 0.147,-0.5515 0.4028,-0.6223 0.4803,-0.1088 0.9285,-0.2168 1.3736,-0.4536 0.762,-0.438 0.9048,-1.1504 0.9497,-1.9243 0.1249,-1.4206 0.1453,-3.1602 -1.4804,-3.7629 -0.8789,-0.3643 -1.884,-0.6286 -2.848,-0.5396 -1.0598,0.1232 -2.1107,0.601 -2.7998,1.3592 -0.4096,0.3647 -0.6248,0.7565 -0.8717,1.1817 -0.01,0.0225 -0.017,0.053 -0.028,0.0894 -0.1652,0.3236 -0.2584,0.5168 -0.4629,0.8569 -0.1843,0.3592 -0.3685,0.7179 -0.5854,1.0458 -0.1563,0.1969 -0.3435,0.4273 -0.4994,0.6243 -0.061,0.1305 -0.1216,0.2931 -0.2156,0.3922 -0.7514,0.8565 -1.5346,1.7133 -2.3182,2.5711 -0.093,0.1308 -0.3863,0.0097 -0.4227,-0.1504 -0.069,-0.1914 -0.1385,-0.3833 -0.1423,-0.5443 -0.037,-1.4482 -0.1694,-2.862 -0.3342,-4.275 0,-0.161 -0.039,-0.2889 -0.011,-0.4181 v 0 c 0.1076,-0.8403 -0.2965,-1.5388 -0.4773,-2.3072 -0.071,-0.2558 -0.3338,-0.4743 -0.6235,-0.4671 -0.6134,-0.0488 -1.1928,-0.0339 -1.8044,-0.0187 -0.2249,0.006 -0.4143,0.1716 -0.538,0.3681 -0.1232,0.2283 -0.2147,0.424 -0.3384,0.6205 -0.061,0.1305 -0.1885,0.1978 -0.2833,0.2647 -0.4223,-0.1503 -0.7807,-0.302 -1.203,-0.4523 -0.2922,-0.0894 -0.6167,-0.1779 -0.9386,-0.1694 -0.6756,0.0169 -1.3838,0.0351 -2.0581,0.1164 -0.6421,0.0809 -1.1513,0.319 -1.4579,0.9387 -0.1212,0.2931 -0.341,0.5239 -0.5265,0.8187 -0.093,0.1635 -0.1851,0.3266 -0.2131,0.4884 -0.105,0.9369 -0.4701,1.7836 -0.4456,2.7489 0.025,0.9658 -0.08,1.9344 -0.152,2.9027 0,0.161 0.01,0.3541 0.046,0.5464 0.2465,0.8311 0.6815,1.4643 1.4346,1.9603 0.6883,0.4659 1.4028,0.7052 2.2067,0.6527 0.5786,-0.047 1.1894,-0.0949 1.7994,-0.1745 0.1609,-0.0042 0.3532,-0.0411 0.5455,-0.0784 0.2253,-0.0055 0.4553,0.1817 0.4613,0.4071 0.051,0.7395 0.069,1.4799 0.089,2.2199 0.043,0.4176 -0.076,0.8073 -0.3571,1.1686 -0.997,1.3135 -1.8294,2.7841 -2.5651,4.2522 -0.7984,1.5337 -1.3058,3.125 -1.2927,4.896 0.012,1.7387 0.012,1.7387 0.7285,3.3309 0.4443,1.0195 1.1602,1.291 2.2221,1.2643 0.2575,-0.0067 0.5455,-0.0783 0.8013,-0.149 0.4482,-0.1081 0.895,-0.2805 1.3432,-0.3885 0.576,-0.1435 1.1165,-0.4151 1.5235,-0.8763 0.2508,-0.2639 0.5341,-0.5286 0.8188,-0.729 0.5375,-0.4002 0.9445,-0.8615 1.2516,-1.449 0.46,-0.9136 1.0831,-1.7345 1.153,-2.7993 0.031,-0.0648 0.092,-0.1631 0.1228,-0.2283 0.1843,-0.3592 0.2397,-0.7146 0.23,-1.1009 0.017,-0.5803 0.034,-1.1928 0.019,-1.8044 -0.067,-1.3829 0.026,-2.7701 -0.202,-4.1492 0,-0.0644 0,-0.161 -0.01,-0.2576 0.01,-0.87 -0.044,-1.7383 -0.1626,-2.6049 -0.072,-0.3202 -0.081,-0.6421 -0.1212,-0.9632 -0.039,-0.2889 -0.014,-0.579 0.1407,-0.8086 0.4625,-0.817 1.8683,-2.5274 2.557,-3.3178 0.1254,-0.1321 0.4236,-0.5002 0.6854,-0.834 0,0.8785 0.074,1.7612 0.1944,2.5186 0.1935,1.2834 0.5095,2.3059 1.4659,3.1835 0.6921,0.6269 1.4762,1.0576 2.4745,1.0644 0.7421,0.0458 1.4477,-0.0686 2.1848,-0.2164 1.0258,-0.1868 1.8827,-0.6917 2.571,-1.4825 0.4693,-0.5591 0.9382,-1.1187 1.4071,-1.6782 0.2804,-0.3613 0.529,-0.7217 0.7455,-1.0818 0.6044,-1.0898 0.7293,-1.5163 1.4028,-2.7671 -0.017,0.6489 -0.056,1.2753 -0.039,1.9276 0.01,1.61 0.082,3.2187 0.1546,4.827 0.017,0.676 0,1.3528 -0.1423,2.0005 -0.059,0.227 -0.1173,0.454 -0.1118,0.6794 0.015,0.579 0.028,1.094 -0.087,1.6447 -0.089,0.2922 -0.016,0.6442 0.024,0.9331 0.072,0.2884 0.1105,0.5451 0.052,0.8039 -0.06,0.1627 -0.056,0.3236 -0.052,0.4846 0.049,0.643 0.098,1.3181 0.2109,1.9594 0.1843,0.9293 0.1817,2.0886 1.3427,2.156 0.8387,0.0432 1.6973,-0.3974 2.4978,-0.5786 1.1851,-0.2559 1.5943,-0.6206 2.3415,-1.638 0.03,-0.0652 0.061,-0.13 0.092,-0.1952 0.1122,-0.6472 0.032,-1.2572 -0.1762,-1.8637 -0.07,-0.1915 -0.1385,-0.3829 -0.1436,-0.5761 -0.014,-0.5472 -0.06,-1.0936 -0.01,-1.6426 0.05,-0.5807 0.035,-1.1601 0.019,-1.7717 -0.047,-0.5786 -0.062,-1.1576 -0.077,-1.7693 0.022,-0.4193 0.1461,-0.5836 0.5646,-0.5942 0.4176,-0.0428 0.8353,-0.0856 1.2864,-0.0648 0.7734,0.0127 1.4748,-0.2631 2.1089,-0.6655 0.5697,-0.4011 1.139,-0.8018 1.7078,-1.2351 0.4121,-0.2681 0.6925,-0.6294 0.9403,-1.022 0.6472,-1.1437 1.0678,-2.3462 1.0013,-3.6973 -0.016,-0.6117 0.2338,-0.9399 0.809,-1.1153 0.1915,-0.0695 0.4168,-0.0754 0.5752,-0.1758 0.1563,-0.0631 0.2999,-0.1381 0.4461,-0.2173 -0.087,1.2271 -0.017,2.5851 0.1571,3.6804 0.1936,1.2834 0.5096,2.3059 1.466,3.1835 0.6921,0.6265 1.4761,1.0577 2.4744,1.0644 0.7421,0.0458 1.4478,-0.069 2.1848,-0.2164 1.0259,-0.1872 1.8827,-0.6921 2.571,-1.4825 0.4689,-0.5595 0.9378,-1.1186 1.4071,-1.6782 0.2804,-0.3613 0.5291,-0.7221 0.7455,-1.0817 0.6159,-1.1106 0.734,-1.5325 1.4414,-2.8388 0.092,-0.1957 0.2745,-0.6188 0.3948,-0.9441 0.271,-0.7476 0.8306,-1.5346 1.0381,-2.2483 0.1775,-0.6167 0,-1.0953 -0.2884,-1.2169 z m -18.3989,4.7507 c -0.1262,0.1 -0.2524,0.1995 -0.3787,0.2995 -1.5527,1.0055 -2.8726,2.2953 -4.1598,3.616 -0.1254,0.1321 -0.2838,0.2329 -0.4414,0.3655 -0.032,8e-4 -0.064,0.0017 -0.097,-0.0297 -0.033,-0.0313 -0.066,-0.0626 -0.067,-0.0948 -0.01,-0.1932 -0.01,-0.3863 0.05,-0.5812 0.4502,-1.2995 0.9013,-2.5672 1.3511,-3.8667 0.1809,-0.4879 0.3626,-0.9433 0.7392,-1.3393 0.313,-0.3622 0.5917,-0.7878 0.936,-1.1835 0.1258,-0.1317 0.2834,-0.2647 0.4418,-0.3651 0.1254,-0.1321 0.4168,-0.0754 0.5168,0.0513 0.033,0.0313 0.066,0.0627 0.099,0.094 0.3706,0.6345 0.7416,1.3016 1.0801,1.9374 0.1003,0.1584 0.1063,0.3838 0.141,0.4795 -0.025,0.2905 -0.052,0.4841 -0.2101,0.6171 z m 0.096,2.5096 c -0.062,0.0983 -0.092,0.1957 -0.1538,0.294 -0.4922,0.9141 -1.2152,1.6087 -2.0043,2.2411 -0.1576,0.1326 -0.349,0.202 -0.5087,0.2702 -0.064,0.0339 -0.1605,0.0043 -0.2258,-0.0262 -0.033,-0.0314 -0.068,-0.1271 -0.037,-0.1923 0.1512,-0.3906 0.3668,-0.7824 0.6819,-1.0479 0.629,-0.596 1.291,-1.1602 1.9209,-1.7235 0.031,-0.0331 0.1287,-0.0034 0.2253,-0.006 0.032,-8e-4 0.033,0.0314 0.067,0.0949 0,0 0.034,0.0636 0.035,0.0957 z m -18.1104,-2.9221 c -9e-4,-0.0322 -9e-4,-0.0322 -9e-4,-0.0322 -0.1063,-0.3838 -0.244,-0.7345 -0.2546,-1.153 0.02,-0.4837 0.2216,-1.4227 0.4685,-1.8476 0.2791,-0.4257 0.9679,0.072 1.1995,0.3236 0.266,0.3156 0.2783,0.7985 0.3211,1.2161 0.011,0.4181 -0.014,0.7408 -0.1317,1.1627 -0.1487,0.4867 -1.3919,1.0013 -1.6019,0.3304 z m -13.641,-0.6845 c -0.023,0.3549 -0.1101,0.7438 -0.1012,1.0979 -0.016,0.6442 -0.2601,1.166 -0.6341,1.6586 -0.155,0.2292 -0.3765,0.3961 -0.5646,0.5939 -0.094,0.0991 -0.3219,0.0085 -0.3253,-0.1203 -0.042,-0.3855 -0.083,-0.7387 -0.093,-1.125 -0.01,-0.3219 -0.017,-0.6438 -0.025,-0.9657 l 0.032,-9e-4 c -0.086,-0.8352 -0.1703,-1.6383 -0.2563,-2.4732 -0.04,-0.321 -0.048,-0.6429 0.105,-0.9369 0.1521,-0.3579 1.5749,-0.1364 1.7112,0.1499 0.1013,0.1906 0.1737,1.7672 0.1504,2.1217 z m 0.3939,20.6026 c -0.046,0.7099 -0.3528,1.3296 -0.8225,1.857 -0.1254,0.1321 -0.2838,0.2325 -0.4422,0.3333 -0.3791,0.2995 -0.7997,0.2135 -1.0357,-0.1995 -0.066,-0.0627 -0.1008,-0.1584 -0.1346,-0.2219 -0.3381,-0.6354 -0.5799,-1.2733 -0.6299,-1.9806 -0.044,-0.4499 -0.087,-0.8997 -0.1707,-1.6384 0.024,-0.3227 0.041,-0.9352 0.091,-1.5159 0.025,-0.2584 0.1147,-0.5507 0.2376,-0.779 0.5527,-1.0771 1.269,-2.0293 2.15,-2.8569 0.094,-0.0987 0.2524,-0.1995 0.3516,-0.1055 0.098,0.0619 0.1351,0.2542 0.1063,0.3838 -0.266,0.9407 -0.1449,1.9039 -0.024,2.8671 0.1135,0.6735 0.2283,1.3791 0.3096,2.0534 0.047,0.5786 0.062,1.1902 0.014,1.8031 z" />
        <path
           inkscape:connector-curvature="0"
           id="path1618"
           style="fill:#ffffff;fill-rule:evenodd"
           d="m 2778.3019,-111.6339 0.7065,2.8802 3.0725,0.7819 -2.7366,1.5126 0.1474,2.9501 -2.3978,-1.945 -2.9819,1.0416 1.255,-2.7147 -1.9899,-2.3067 3.1729,0.2673 z" />
        <g
           id="Layer1026">
          <path
             inkscape:connector-curvature="0"
             id="path1620"
             style="fill:#ffffff;fill-rule:evenodd"
             d="m 2833.3404,-107.8811 v -2.053 h 1.0568 c 0.1962,0 0.3461,0.0169 0.4494,0.0508 0.1038,0.0335 0.1873,0.0957 0.2508,0.1868 0.063,0.091 0.095,0.2024 0.095,0.3333 0,0.114 -0.025,0.2122 -0.073,0.2948 -0.048,0.0835 -0.1152,0.1504 -0.2007,0.2016 -0.054,0.0327 -0.1284,0.0602 -0.2228,0.0814 0.076,0.0254 0.1304,0.0504 0.1651,0.0758 0.023,0.0165 0.057,0.0529 0.1013,0.1076 0.044,0.055 0.074,0.0978 0.088,0.1279 l 0.3079,0.593 h -0.7166 l -0.3389,-0.626 c -0.043,-0.0814 -0.081,-0.1339 -0.1148,-0.1585 -0.046,-0.0313 -0.098,-0.047 -0.1554,-0.047 h -0.056 v 0.8315 z m 0.6367,-1.2186 h 0.2677 c 0.029,0 0.085,-0.01 0.1685,-0.0284 0.042,-0.008 0.076,-0.0296 0.1025,-0.0644 0.027,-0.0347 0.04,-0.0745 0.04,-0.1194 0,-0.0665 -0.021,-0.1178 -0.063,-0.1529 -0.042,-0.036 -0.1207,-0.0534 -0.2372,-0.0534 h -0.2787 z" />
          <path
             inkscape:connector-curvature="0"
             id="path1622"
             style="fill:#ffffff;fill-rule:evenodd"
             d="m 2834.3113,-110.8948 c 0.554,0 1.0559,0.2245 1.4189,0.5879 0.3634,0.363 0.5879,0.8649 0.5879,1.419 0,0.554 -0.2245,1.0559 -0.5879,1.4193 -0.363,0.363 -0.8649,0.5879 -1.4189,0.5879 -0.5541,0 -1.056,-0.2249 -1.419,-0.5879 -0.3634,-0.3634 -0.5879,-0.8653 -0.5879,-1.4193 0,-0.5541 0.2245,-1.056 0.5879,-1.419 0.363,-0.3634 0.8649,-0.5879 1.419,-0.5879 z m 1.1656,0.8412 c -0.2982,-0.2982 -0.7103,-0.4828 -1.1656,-0.4828 -0.4554,0 -0.8675,0.1846 -1.1657,0.4828 -0.2986,0.2982 -0.4829,0.7103 -0.4829,1.1657 0,0.4553 0.1843,0.8674 0.4829,1.1656 0.2982,0.2986 0.7103,0.4829 1.1657,0.4829 0.4553,0 0.8674,-0.1843 1.1656,-0.4829 0.2986,-0.2982 0.4829,-0.7103 0.4829,-1.1656 0,-0.4554 -0.1843,-0.8675 -0.4829,-1.1657 z" />
        </g>
      </g>
    </g>
  </g>
</svg>
